<svg width="524" height="422" viewBox="0 0 524 422" fill="none" xmlns="http://www.w3.org/2000/svg">
<g clip-path="url(#clip0_207_496)">
<path fill-rule="evenodd" clip-rule="evenodd" d="M117.182 61.9072C116.997 63.6254 115.01 62.3133 114.825 63.2446C114.707 63.8298 116.752 65.2821 117.193 65.6821C115.769 66.6041 113.95 64.4799 112.882 63.5897C112.332 64.2309 112.146 64.5678 112.651 65.3013C113.543 66.5965 113.502 64.8804 114.563 65.7816C114.121 66.5783 113.733 66.1217 113.172 65.9074C113.416 67.4405 112.869 66.4701 112.441 67.441C112.093 68.2306 112.135 68.8142 112.032 69.6961C112.535 70.9379 113.038 72.1803 113.542 73.4221C114.147 74.9161 113.967 75.3964 115.448 74.8969C115.281 74.587 114.173 73.0715 114.263 72.699C114.366 72.2731 115.881 71.6841 116.281 71.3264C116.985 70.6972 116.977 70.1576 117.427 69.4818C117.248 68.8532 117.387 68.5592 117.844 68.6015L118.348 70.0582C118.306 71.0917 117.493 70.995 117.014 71.9824C116.279 73.4935 116.69 72.6017 117.29 73.8177C117.88 75.0123 117.946 76.5371 118.915 77.1377C118.394 77.3833 117.874 77.6289 117.353 77.874C118.569 79.307 116.04 78.6092 115.622 78.4701C116.05 79.4455 116.477 80.4208 116.905 81.3961C118.187 80.6257 118.819 79.1652 119.673 77.9591L121.622 81.8505C120.975 81.7863 120.329 81.7225 119.683 81.6582C119.773 81.8412 120.601 83.0962 120.53 83.3753C120.241 84.5133 118.041 83.8715 118.284 85.3601C118.315 85.5507 120.288 87.6866 120.626 87.8926C119.635 88.3707 119.186 88.1723 119.542 89.4279L120.922 88.5317C121.314 89.2872 121.768 90.0251 122.018 90.8527C121.97 91.3939 122.06 91.9066 122.288 92.3912C122.559 92.8247 122.865 93.2292 123.204 93.6039C123.474 94.3649 123.56 98.519 123.236 99.1965C122.512 98.1926 120.895 99.9647 123.625 99.9647C124.82 99.9647 124.74 99.6976 125.197 100.825C125.556 101.713 125.75 102.487 124.731 102.572C125.497 104.192 125.334 105.441 125.403 107.168C125.459 108.567 125.824 109.957 126.095 111.33C125.853 110.956 125.61 110.582 125.367 110.208C124.714 111.705 125.212 112.965 125.523 114.567C126.201 113.605 126.284 115.322 126.864 115.144C128.048 114.781 127.162 114.514 127.643 113.681C128.06 112.959 128.016 112.752 128.787 112.31C129.809 111.725 131.601 111.703 132.758 111.497C134.702 111.148 136.649 111.061 138.616 110.969C145.98 110.626 153.318 110.538 160.681 110.973C167.454 111.373 174.392 112.393 181.034 113.774C188.106 115.245 195.022 116.601 201.871 119.088C203.194 119.569 204.519 120.572 205.842 120.924C207.097 121.259 208.355 121.254 209.663 121.742C212.797 122.91 216.038 123.796 219.196 124.911C222.598 126.113 226.28 127.115 229.519 128.778C230.925 129.501 232.202 130.481 233.608 131.212C234.932 131.902 237.159 132.531 237.859 134.124C238.131 134.744 238.085 135.195 237.915 135.838C237.576 137.129 237.307 136.99 236.384 136.902C235.1 136.78 233.438 135.707 232.191 135.285C228.777 134.13 225.321 133.205 221.849 132.28C215.614 130.618 209.354 127.675 203.201 126.524C199.552 125.841 196.095 123.985 192.426 123.284C191.621 123.131 189.291 121.897 188.63 122.324C188.455 122.436 188.026 123.79 187.875 124.114C187.334 125.276 186.712 126.399 185.985 127.44C183.791 130.58 180.85 133.109 178.224 135.814C175.225 138.905 172.619 142.315 169.851 145.632C169.61 145.333 169.37 145.034 169.13 144.735C169.383 146.83 167.922 148.341 166.727 149.763C165.309 151.454 164.169 153.042 163.05 154.969C162.133 156.549 160.959 157.933 159.922 159.373C158.903 160.789 158.224 162.499 157.286 164.025C155.133 167.531 153.014 171.105 150.842 174.564C149.82 176.192 149.012 178.024 148.203 179.878C147.561 181.349 145.629 184.356 145.629 185.783C145.768 186.482 144.356 190.687 145.865 188.706C146.105 189.106 146.346 189.506 146.588 189.906C146.175 189.72 145.763 189.534 145.35 189.348C146.603 190.567 144.263 190.723 144.211 191.404C144.42 191.62 144.629 191.836 144.837 192.052C145.193 192.84 145.657 192.942 146.226 192.358C146.854 192.4 146.979 192.023 147.679 192.274C147.011 193.394 146.15 192.686 145.811 194.234C145.513 195.599 146.457 195.891 147.455 196.698L147.517 196.749L147.539 196.829C147.756 197.527 148.373 197.23 149.06 197.078C150.702 196.715 152.517 196.019 154.117 195.483C157.575 194.325 161.059 193.349 164.634 192.557C172.79 190.75 180.882 190.835 189.113 190.264C188.896 189.296 188.895 189.381 189.152 188.781C188.822 189.55 190.81 188.546 189.312 190.245C193.136 190.917 197.268 190.412 201.146 190.635C200.966 190.203 200.551 189.707 200.939 189.394C202.775 192.245 208.912 191.023 211.945 191.431C213.726 191.671 215.486 192.131 217.261 192.434L218.008 192.56C218.631 192.666 219.255 192.783 219.864 192.96C220.648 193.187 221.955 194.119 222.698 193.903C221.61 191.546 222.865 193.586 223.036 193.613C223.553 193.695 224.443 193.882 225.185 193.882C224.339 190.233 222.887 186.87 222.302 183.112C221.937 180.769 220.936 176.995 223.093 175.335C224.275 174.425 226.212 174.227 227.581 173.918C229.082 173.579 231.703 173.593 233.009 172.682C234.028 171.971 234.243 171.317 235.578 170.773C237.119 170.145 237.829 169.522 239.385 170.029C238.752 169.178 237.865 168.557 239.108 167.687C239.617 167.332 240.615 167.811 240.793 167.032C241.715 167.732 241.497 168.297 241.744 169.256C241.721 169.661 241.622 170.048 241.445 170.415C241.933 170.626 242.421 170.837 242.909 171.048C242.599 170.153 243.509 170.686 243.691 170.246C243.961 169.589 243.801 168.585 243.801 167.871C244.807 168.212 245.859 168.634 246.299 169.758C247.531 168.97 247.041 168.916 246.41 167.733C247.444 167.47 247.663 168.042 247.82 168.962C248.366 168.78 248.912 168.6 249.458 168.419C248.228 168.409 247.932 167.378 247.903 166.257C248.382 166.424 248.86 166.591 249.339 166.758C249.437 167.301 249.536 167.843 249.634 168.385C250.388 169.071 252.348 167.832 252.984 167.478C255.202 166.243 256.014 165.886 255.701 163.081C255.44 160.729 254.861 158.366 254.733 156.002C254.59 153.376 254.875 150.567 255.09 147.95C255.505 142.884 256.174 137.892 256.408 132.805C256.535 130.051 256.676 127.297 256.777 124.541C256.857 122.351 257.561 119.941 255.016 119.746C255.327 118.686 254.395 117.46 253.434 116.879C253.098 116.056 252.73 115.983 252.331 116.659C251.984 116.776 251.661 116.721 251.363 116.493C249.962 116.152 248.281 114.017 247.023 113.247C245.79 112.493 243.101 111.396 242.22 110.126C241.369 108.896 242.657 109.035 242.397 107.908C242.041 106.369 240.747 108.58 240.549 108.888C240.116 108.421 238.464 107.546 238.484 106.868C238.889 106.791 239.293 106.713 239.698 106.636C239.256 106.362 238.275 105.543 237.76 105.435C236.886 105.251 237.214 105.013 236.514 106.047C236.27 105.642 235.678 104.309 235.307 104.04C235.13 103.91 234.078 103.825 233.857 103.741C232.712 103.307 232.827 102.35 231.986 101.895C231.577 101.675 231.075 102.013 230.732 101.853C230.184 101.596 230.183 100.718 229.686 100.4C229.256 100.124 228.166 100.353 227.653 100.153C226.802 99.8191 226.84 99.5086 226.205 98.8998C225.315 98.0464 224.496 98.1701 223.505 97.5233C222.477 96.853 222.635 95.3436 221.703 95.0556C220.458 94.6715 220.139 95.9375 219.462 94.6869C219.309 94.4061 220 93.9863 219.567 93.5358C219.032 92.9808 218.811 93.6429 218.566 94.0743L217.721 92.3615C216.366 93.1583 216.935 92.1307 215.901 91.5835C215.442 91.3406 215.064 91.8203 214.561 91.5269C214.191 91.3115 214.127 90.8422 213.861 90.5515C213.35 89.9927 213.068 89.2256 212.277 88.9597C212.563 89.0553 210.219 88.9828 210.428 88.8751C210.656 88.5157 210.884 88.1564 211.113 87.797C209.886 87.797 208.815 87.9278 207.628 87.5322C207.208 87.3926 206.552 87.1772 206.202 86.8904C205.242 86.1019 205.458 86.2942 205.458 84.8457C204.133 85.7513 202.447 85.4348 201.139 84.3847C200.457 83.8364 200.019 83.1803 199.27 82.6846C198.949 82.5061 198.622 82.339 198.29 82.1841C197.875 81.7225 197.459 81.7181 197.042 82.1714C196.452 82.0016 196.459 81.8846 196.002 81.5774C195.871 81.2994 195.732 81.0263 195.582 80.7587C195.092 80.7038 194.609 80.6087 194.132 80.4735C192.281 79.9389 191.164 78.6125 189.446 79.7878C189.226 79.307 189.006 78.8257 188.787 78.3443C188.056 79.5707 187.556 78.3993 186.586 77.9025C186.179 77.6943 185.651 77.6426 185.284 77.4525L184.662 77.6102C184.487 77.0278 184.312 76.4453 184.137 75.8629C183.783 76.0107 182.382 76.819 181.96 76.7761C181.357 76.7151 180.635 75.6178 180.05 75.4106C179.158 75.0947 179.478 75.5123 178.601 75.5189C177.927 75.5238 177.609 75.6266 177.027 75.0189C178.995 74.4699 176.512 74.2111 175.683 74.0254C174.391 73.7364 173.725 74.0452 172.827 72.949H173.759C172.84 72.0506 173.149 72.3676 172.181 72.4555C171.876 72.4825 170.55 73.2644 170.547 72.2215C169.296 73.0133 169.282 73.0149 167.992 72.6578C167.421 72.4995 166.935 71.9846 166.307 71.9726C165.694 71.961 165.255 72.2583 164.709 72.1945C164.382 72.1572 163.237 71.6962 162.85 71.5451C162.237 71.3049 161.833 70.7923 161.246 70.5939C160.6 70.3747 159.778 70.6351 159.099 70.4752C157.082 69.9983 155.898 68.7015 153.713 69.4037C153.48 67.3042 151.043 67.7712 149.731 67.9877C148.819 68.1388 148.353 68.5356 147.408 68.0553C146.639 67.6646 146.2 67.0448 145.343 66.7327C144.686 66.4931 143.801 66.319 143.115 66.1662C142.691 66.0222 142.257 65.9761 141.815 66.0283C141.37 66.0953 140.997 66.3031 140.696 66.6509L140.641 66.7195C140.573 66.5462 139.539 65.7239 139.658 65.8255C138.886 65.1623 138.524 65.4156 138.05 64.1243L139.704 63.7496C138.852 63.6881 138.213 63.5826 137.455 63.9381C136.932 64.1837 136.052 65.4854 135.528 65.4865C134.579 65.4876 134.248 64.0529 134.342 63.3062C133.546 65.2958 132.867 65.6272 131.08 64.6101C130.87 64.4903 130.66 64.3711 130.45 64.2513C130.025 63.7727 129.602 63.7815 129.182 64.2782L128.433 64.7161C128.132 64.1793 127.832 63.643 127.532 63.1062C126.894 64.0491 126.288 64.0952 125.248 63.8749C124.531 63.7227 123.06 62.3275 122.531 62.3281C122.224 62.3281 121.833 63.1303 121.322 63.2869C120.476 63.5474 119.161 62.8924 118.86 62.0231C118.7 62.3858 118.54 62.749 118.38 63.1122C117.98 62.7111 117.579 62.3111 117.182 61.9072ZM147.544 196.742L147.545 196.773L147.517 196.749L147.516 196.748L147.544 196.742ZM148.582 194.849V196.539L148.049 196.643L147.544 196.742L147.539 196.65C147.516 195.837 147.904 195.235 148.582 194.849ZM195.67 188.127C195.837 188.674 196.003 189.222 196.168 189.769C195.609 189.818 195.049 189.867 194.489 189.917C194.883 189.32 195.277 188.724 195.67 188.127ZM261.389 144.831C260.166 145.215 260.183 145.168 259.937 146.384C258.539 153.302 262.863 161.236 259.689 167.812C268.969 167.731 278.269 167.93 287.495 169.098C287.495 165.331 287.38 161.572 287.645 157.811C287.765 156.103 287.945 154.402 288.107 152.699C288.312 150.538 288.247 150.665 286.6 150.293C285.735 150.097 285.425 149.508 284.598 149.149C283.977 148.879 283.699 149.211 283.087 149.304C281.992 149.469 281.979 149.272 280.976 149.043C278.823 148.55 276.995 148.726 275.294 147C274.412 146.918 274.698 147.795 274.083 147.709C273.637 147.646 273.352 146.751 272.896 146.537C271.478 145.87 269.118 146.033 267.566 145.825C265.981 145.613 264.579 144.845 263.061 144.618C262.437 144.524 261.981 144.646 261.389 144.831ZM243.487 164.797C243.786 165.993 245.1 164.436 245.121 165.374L245.12 165.458L245.117 165.436C245.048 165.278 243.719 167.167 243.797 167.104C243.083 167.681 242.667 167.627 241.858 166.964C243.306 166.906 243.147 165.946 243.487 164.797ZM239.452 166.487C238.923 166.799 238.761 166.001 238.487 165.514C239.078 165.198 239.165 165.933 239.452 166.487ZM241.088 161.283C240.882 162.06 240.897 162.656 240.897 163.458C239.674 163.272 239.29 163.177 239.267 161.781L239.921 162.222C240.264 161.493 240.339 161.436 241.088 161.283ZM250.548 162.584C250.271 162.393 249.995 162.201 249.718 162.009C250.126 161.378 250.852 162.128 250.548 162.584ZM247.456 150.976C247.103 150.777 246.749 150.578 246.396 150.379C247.313 149.123 247.38 149.545 247.456 150.976ZM248.734 141.017H250.124C249.852 141.976 248.734 142.183 248.734 141.017ZM112.564 85.1996C112.247 85.3985 111.929 85.5974 111.612 85.7957C112.437 86.6029 113.451 87.4167 112.648 88.3629C112.01 89.1141 109.031 89.4723 108.138 89.746C108.448 90.1284 109.086 91.1735 109.508 91.4367C109.843 91.645 110.148 90.8202 110.823 91.6417C109.704 92.2648 110.004 91.7928 110.295 93.1143C110.466 93.894 111.079 94.7314 111.425 95.4309C112.267 97.1326 113.128 98.8233 114.011 100.501C115.822 103.941 117.728 107.324 119.732 110.64C120.069 108.767 119.103 106.669 118.602 104.862C117.972 102.588 117.34 100.316 116.706 98.0436C115.481 93.6654 114.382 89.3327 112.564 85.1996ZM161.171 90.9125C162.076 91.1604 162.669 91.3219 163.605 91.578C162.246 92.0428 162.245 92.0428 161.171 90.9125ZM121.09 82.4731C122.245 83.0534 122.368 83.4748 121.434 84.1847C121.323 83.6325 121.242 83.2275 121.09 82.4731ZM121.231 68.7422C121.387 69.479 122.358 68.7702 122.573 69.3087C123.065 70.5406 121.5 70.3736 120.936 70.2994C121.034 69.7801 121.133 69.2614 121.231 68.7422ZM114.689 67.807C114.998 69.3823 114.998 69.3823 113.567 69.6191C113.943 69.0125 114.258 68.5037 114.689 67.807ZM140.641 66.7195L140.643 66.7363C140.643 66.7426 140.638 66.7468 140.631 66.7485L140.616 66.7492L140.641 66.7195Z" fill="#6CAEFF"/>
<path fill-rule="evenodd" clip-rule="evenodd" d="M321.563 231.724C321.78 232.923 322.323 233.488 321.754 234.59C321.272 235.526 319.888 236.138 318.959 235.901L321.563 231.724ZM346.726 189.059L351.308 190.745C350.056 192.065 348.862 193.451 347.482 194.623L346.726 189.059ZM271.156 193.378C273.341 192.195 275.789 192.062 278.184 191.91C277.82 194.022 277.456 196.134 277.091 198.246C275.113 196.623 273.134 195 271.156 193.378ZM323.624 356.845C324.06 356.016 327.035 349.61 327.653 349.939C327.981 350.113 328.006 353.68 328.054 354.187C328.225 355.991 328.396 357.795 328.566 359.6C326.807 358.933 324.928 358.379 323.624 356.845ZM344.404 305.055C343.954 306.47 343.504 307.886 343.054 309.302C342.84 309.975 342.715 310.968 342.336 311.562C341.845 312.332 342.216 312.786 341.559 311.942C340.854 311.036 340.643 308.62 340.337 307.51C339.872 305.823 339.407 304.138 338.943 302.452C341.133 302.432 342.461 304.369 344.404 305.055ZM390.44 221.677C393.133 223.654 395.86 225.615 398.204 228.072C396.142 227.934 393.271 229.457 391.329 228.742C390.433 228.947 390.137 228.582 390.44 227.644V225.697V221.677ZM350.499 235.662V247.205C347.984 244.904 345.337 242.766 342.917 240.346C345.444 238.785 347.971 237.223 350.499 235.662ZM260.589 265.571C261.383 270.709 261.427 275.997 261.645 281.198C261.683 282.121 262.014 283.51 261.441 284.319C260.867 285.129 259.23 285.578 258.398 286.011C256.057 287.23 253.731 288.483 251.397 289.717C254.461 281.668 257.525 273.619 260.589 265.571ZM201.153 233.968C195.377 230.92 189.602 227.871 183.826 224.822C189.489 222.248 195.152 219.674 200.814 217.1C200.927 222.723 201.04 228.346 201.153 233.968ZM260.602 248.321C259.546 248.403 259.379 244.085 259.205 242.944C258.872 240.776 258.531 238.611 258.182 236.447C257.482 232.12 256.747 227.8 255.974 223.488C254.426 214.866 252.72 206.276 250.828 197.733C252.861 197.34 254.728 197.057 256.713 196.421C258.316 195.908 260.226 196.187 261.657 195.12C261.843 199.123 260.912 203.379 260.567 207.382C260.168 212.013 259.954 216.621 259.989 221.273C260.059 230.29 260.378 239.308 260.602 248.321ZM393.537 370.481C392.536 370.195 393.899 355.461 393.96 353.337C394.134 347.185 394.167 341.029 394.065 334.876C399.458 338.507 404.975 341.851 410.672 344.868C409.208 346.907 407.836 349.106 406.216 351.004C404.547 352.958 402.632 354.56 401.085 356.665C397.97 360.904 395.837 365.716 393.537 370.481ZM263.772 283.324C263.521 278.892 263.289 274.47 262.872 270.052C262.695 268.171 261.002 258.18 263.712 258.415C265.253 258.548 267.957 260.97 269.37 261.819C271.237 262.94 273.106 264.058 274.982 265.162C278.684 267.34 282.41 269.47 286.125 271.622C278.674 275.523 271.223 279.423 263.772 283.324ZM279.859 191.177C282.945 190.929 285.929 190.683 288.973 190.066C290.614 189.733 292.256 189.779 293.906 189.555C295.088 189.394 297.399 188.351 298.5 188.692C299.884 189.121 300.386 196.567 300.577 198.436C300.883 201.446 301.09 205.098 299.838 207.925C297.424 213.376 290.922 209.121 287.759 206.835C285.047 204.875 281.975 202.889 279.57 200.509C277.44 198.401 279.352 193.901 279.859 191.177ZM263.854 250.452C261.529 249.442 261.566 248.173 261.464 245.561C261.342 242.387 261.27 239.21 261.186 236.034C261.035 230.376 260.893 224.715 260.94 219.053C260.985 213.522 261.238 208.001 261.827 202.504C262.035 200.561 261.828 197.241 262.782 195.583C263.652 194.071 266.354 194.055 267.829 194.149C269.491 194.254 270.837 195.949 272.064 197.02C273.422 198.208 276.214 199.879 276.436 201.65C276.686 203.627 275.674 206.448 275.282 208.365C273.849 215.364 272.105 222.294 270.268 229.181C268.362 236.327 266.431 243.544 263.854 250.452ZM322.931 233.699C322.781 232.127 322.236 230.813 322.973 229.315C323.606 228.027 324.637 226.733 325.411 225.514C327.627 222.022 330.111 218.676 332.525 215.34C334.736 212.284 337.001 209.261 339.318 206.298C340.608 204.648 341.939 203.033 343.261 201.412C344.23 200.226 345.148 198.559 346.518 197.938C347.527 204.75 348.361 211.591 349.012 218.454C349.327 221.771 349.598 225.093 349.825 228.419C349.89 229.357 350.568 232.527 350.135 233.401C349.679 234.319 346.892 235.548 346.039 236.111C343.655 237.684 341.802 240.055 339.534 237.469C337.973 235.687 336.715 233.176 334.97 231.622C334.061 230.812 333.205 230.85 332.185 230.369C330.999 229.81 330.962 229.273 329.545 230.032C327.158 231.312 325.708 233.203 322.931 233.699ZM442.442 268.748C442.442 273.464 442.743 277.341 439.766 281.159C437.164 284.495 434.461 285.267 430.801 286.584C428.647 287.359 428.496 286.644 426.75 285.335C425.091 284.092 423.284 283.095 421.647 281.813C418.12 279.049 414.595 276.198 411.167 273.291C410.015 272.313 410.185 272.647 410.36 271.474C410.52 270.405 411.234 269.044 411.625 268.028C412.331 266.189 413.163 264.409 413.995 262.633C414.941 260.617 415.764 258.428 416.938 256.549C417.425 255.769 418.003 255.063 418.572 254.352C419.769 252.855 419.726 252.911 421.158 254.134C424.179 256.718 426.991 259.516 430.391 261.536C434.415 263.928 438.429 266.335 442.442 268.748ZM351.331 232.216C350.895 225.445 350.403 218.712 349.647 211.972C349.258 208.511 348.807 205.06 348.367 201.606C348.188 200.2 347.497 197.84 347.882 196.474C348.26 195.13 349.929 193.85 350.845 192.877C351.091 192.616 351.848 191.518 352.174 191.469C352.522 191.417 353.834 192.448 354.212 192.68C355.55 193.504 356.863 194.37 358.157 195.271C360.595 196.97 362.957 198.792 365.268 200.683C370.115 204.648 374.737 208.914 379.482 213.017C375.135 217.108 369.785 220.284 364.925 223.597C362.052 225.556 359.164 227.493 356.238 229.361C354.755 230.307 353.034 231.754 351.331 232.216ZM410.749 353.289C414.259 355.781 417.611 358.411 421.58 360.01C425.532 361.602 429.437 362.215 433.521 363.161C435.581 363.639 437.517 364.161 439.619 364.495C440.797 364.682 442.62 364.61 443.694 365.144C444.651 364.925 444.991 365.275 444.715 366.194C444.705 366.48 444.695 366.766 444.685 367.052C444.414 371.026 442.035 375.809 439.96 379.04C438.749 380.927 437.206 382.682 435.672 384.268C433.94 386.059 432.942 387.321 430.528 386.571C426.459 385.306 422.869 382.761 418.745 381.638C415.483 380.75 412.773 378.889 409.592 377.926C405.668 376.738 401.786 375.384 397.808 374.392C399.585 370.709 401.174 366.875 403.448 363.501C405.781 360.04 408.354 356.713 410.749 353.289ZM389.223 229.371C381.883 230.94 373.927 232.392 367.357 236.461C364.794 238.049 361.544 240.504 360.793 243.788C359.896 247.714 363.424 250.145 366.372 251.37C369.911 252.841 373.763 253.405 377.513 253.869C379.498 254.114 381.492 254.249 383.486 254.37C385.1 254.469 387.837 254.088 389.313 254.775C390.237 254.577 390.557 254.979 390.274 255.982C390.291 256.342 390.308 256.703 390.325 257.062L390.478 260.299C390.58 262.454 390.682 264.61 390.784 266.765C391.005 271.459 391.228 276.155 391.449 280.849C387.605 278.292 384.506 274.629 380.749 271.901C378.962 270.603 377.189 269.303 375.409 268.01C374.663 267.468 374.207 266.709 373.473 266.204C372.499 265.534 371.636 265.131 370.722 264.253C366.992 260.671 362.844 257.574 358.887 254.285C357.09 252.791 355.122 251.417 353.412 249.814C351.621 248.135 351.869 246.753 351.913 244.339C351.959 241.783 351.085 238.61 351.491 236.145C351.15 235.309 351.412 234.789 352.274 234.584C352.85 234.189 353.426 233.793 354.002 233.397C355.151 232.608 356.3 231.819 357.449 231.031C362.019 227.893 366.588 224.754 371.158 221.616C373.441 220.048 375.724 218.481 378.007 216.913C378.645 216.476 380.725 214.498 381.44 214.556C382.17 214.615 383.436 216.145 383.983 216.632C384.822 217.378 385.637 218.163 386.543 218.816C386.995 219.153 387.467 219.453 387.958 219.717C388.744 219.798 389.016 220.262 388.777 221.106C389.467 223.482 389.088 226.876 389.223 229.371ZM287.436 341.381C289.098 333.037 291.241 323.157 297.724 317.481C304.299 311.725 313.912 313.949 319.055 320.709C321.631 324.094 323.228 328.097 324.415 332.245C325.632 336.503 327.427 342.05 327.098 346.552C326.955 348.526 325.38 350.647 324.479 352.37C323.551 354.148 322.934 356.698 320.745 356.082C317.351 355.127 313.899 352.933 310.722 351.363C307.51 349.775 304.127 348.468 300.796 346.934C298.584 345.916 296.288 345.141 294.082 344.108C291.99 343.13 289.23 342.893 287.436 341.381ZM189.221 291.684C184.585 293.466 182.175 290.614 178.913 287.402C175.823 284.361 172.474 281.435 169.629 278.129C166.694 274.72 164.373 270.691 162.117 266.754C159.835 262.774 156.752 258.476 155.347 254.044C154.633 251.79 154.328 249.292 153.878 246.961C153.769 246.4 153.042 244.313 153.273 243.841C153.591 243.192 155.615 243.123 156.171 243.029C160.595 242.278 165.283 242.24 169.72 242.912C178.305 244.211 185.485 249.381 188.199 258.421C191.379 269.018 189.851 280.797 189.221 291.684ZM219.281 199.766C219.353 201.601 215.257 202.111 214.195 202.539C211.742 203.527 209.302 204.57 206.92 205.739C202.014 208.147 196.783 209.716 192.086 212.627C181.959 218.903 170.966 223.327 160.736 229.329C159.142 230.265 156.027 232.518 154.206 232.328C153.238 232.227 153.959 233.063 153.332 231.411C153.106 230.817 153.031 230.043 152.904 229.407C152.525 227.498 152.232 225.572 151.806 223.674C151.106 220.551 150.39 217.653 150.095 214.442C149.97 213.082 149.832 211.723 149.818 210.354C149.802 208.968 149.505 205.493 150.088 204.292C150.475 203.496 150.552 203.769 151.518 203.544C152.072 203.416 152.652 203.148 153.186 202.969C154.439 202.551 155.694 202.149 157.008 202.025C158.306 201.904 159.134 201.479 160.352 201.233C161.629 200.975 162.941 201.288 164.242 200.928C165.647 200.538 166.317 200.183 167.785 200.331C169.208 200.475 169.618 200.137 171.011 199.72C172.174 199.373 173.56 199.616 174.772 199.511C176.239 199.382 177.702 199.185 179.17 199.061C185.771 198.499 192.45 199.331 199.067 199.265C202.665 199.23 206.185 199.8 209.778 199.624C212.918 199.47 216.164 199.506 219.281 199.766ZM202.108 237.125C205.319 238.438 208.297 240.571 211.274 242.408C214.707 244.526 217.993 246.777 221.17 249.317C226.512 253.589 232.746 258.71 234.152 266.164C235.594 273.814 229.408 280.082 223.607 283.212C216.992 286.78 209.297 288.626 202.051 289.989C202.826 272.379 202.643 254.74 202.108 237.125ZM298.174 278.584C300.122 279.162 301.771 280.4 303.579 281.316C305.197 282.136 306.764 282.755 308.276 283.811C310.74 285.533 313.596 287.006 316.172 288.338C322.546 291.631 328.734 295.72 335.045 299.37C336.717 300.338 337.265 300.949 337.832 302.94C338.447 305.103 339.027 307.28 339.619 309.451C340.172 311.475 341.054 313.64 340.822 315.776C340.619 317.635 339.724 319.389 339.049 321.084C337.349 325.352 335.506 329.551 333.602 333.716C331.893 337.456 330.334 341.424 328.141 344.862C326.436 335.315 324.907 324.618 318.299 317.344C311.696 310.075 301.163 309.972 294.8 317.475C291.777 321.04 289.937 325.529 288.491 330.04C287.732 332.41 287.222 334.825 286.733 337.272C286.211 339.887 286.34 341.274 283.653 340.482C281.52 339.852 279.258 339.35 277.166 338.633C276.082 338.261 275.023 337.842 274.974 336.922C274.912 335.76 276.369 333.38 276.8 332.287C279.022 326.643 281.245 320.999 283.468 315.355C285.882 309.227 288.296 303.098 290.711 296.971C291.915 293.913 293.12 290.855 294.325 287.798C295.425 285.011 296.34 280.872 298.174 278.584ZM201.927 230.926C201.892 228.139 201.849 225.353 201.815 222.566C201.794 220.906 201.105 217.694 202.452 216.508C203.287 215.773 205.764 215.209 206.821 214.706C208.905 213.713 211.161 213.271 213.258 212.285C221.469 208.423 230.014 205.206 238.468 202.093C240.291 201.422 242.154 200.872 243.989 200.211C244.98 199.854 248.649 197.759 249.566 198.307C250.369 198.787 250.974 204.501 251.231 205.688C251.839 208.497 252.421 211.313 252.98 214.134C255.15 225.086 256.97 236.115 258.663 247.163C254.166 245.329 249.856 242.152 245.607 239.696C241.194 237.145 236.795 234.6 232.352 232.107C231.097 231.403 226.685 228.169 225.652 229.438C223.996 231.475 227.943 233.865 228.979 234.737C232.987 238.113 237.221 241.055 241.507 243.999C245.948 247.051 250.57 249.747 255.034 252.742C256.646 253.824 259.218 255.14 259.851 256.967C260.666 259.316 260.078 262.172 259.336 264.417C257.514 269.933 255.519 275.381 253.409 280.777C252.45 283.23 251.466 285.673 250.463 288.106C249.27 291.004 247.703 291.616 245.102 292.95C234.021 298.632 222.512 304.024 211.869 310.598C213.65 312.803 217.991 309.183 219.749 308.266C223.005 306.568 226.263 304.876 229.516 303.173C235.577 300.001 241.606 296.766 247.701 293.67C243.795 303.209 239.185 312.4 234.074 321.255C235.365 321.725 235.05 321.749 235.86 320.916C236.542 320.214 237 318.839 237.462 317.958C238.418 316.137 239.36 314.31 240.323 312.494C242.319 308.725 244.389 305.013 246.212 301.142C247.584 298.23 248.646 293.141 251.464 291.674C254.976 289.844 258.535 288.063 262.047 286.207C262.047 300.711 261.076 314.892 259.651 329.306C259.579 330.033 258.93 332.178 260.239 331.969C260.829 331.873 261.028 327.896 261.131 327.066C261.607 323.259 262.011 319.442 262.341 315.618C262.999 307.986 263.356 300.323 263.402 292.659C264.245 300.111 265.088 307.562 265.931 315.014L267.129 325.606C267.338 327.461 267.548 329.315 267.758 331.17C267.854 332.022 267.793 333.136 268.072 333.948C268.511 335.227 268.363 335.129 269.738 335.712C268.424 326.009 267.209 316.289 266.135 306.552C265.611 301.8 265.12 297.045 264.667 292.286C264.545 291.006 264.426 289.725 264.309 288.445C264.25 287.792 263.726 285.693 264.017 285.151C264.305 284.613 266.215 284.053 266.765 283.779C267.969 283.179 269.173 282.579 270.376 281.976C274.282 280.016 278.184 278.04 282.047 275.984C283.736 275.085 285.509 273.695 287.346 273.215C289.176 272.738 290.506 274.105 292.07 274.974C293.288 275.651 296.156 276.551 296.969 277.7C297.726 278.77 295.375 283.049 294.758 284.626C293.016 289.077 291.275 293.529 289.533 297.979C286.001 307.004 282.469 316.029 278.938 325.054C278.074 327.259 277.211 329.466 276.348 331.672C275.795 333.086 274.871 337.114 273.529 337.272C272.935 337.342 271.959 336.648 271.385 336.448C270.528 336.151 269.737 336.156 268.878 335.999C267.303 335.712 265.667 334.84 264.12 334.227C260.145 332.654 256.023 331.638 252.016 330.168C247.989 328.691 244.029 327.033 240.018 325.556C236.376 324.215 232.701 322.687 229.202 320.94C225.506 319.096 221.717 317.469 218.116 315.424C211.558 311.699 205.071 308.221 199.276 303.652C197.914 302.578 196.463 301.499 195.115 300.349C193.933 299.34 191.679 298.094 190.874 296.767C190.568 296.261 190.304 295.268 190.662 294.668C191.047 294.023 192.749 294.081 193.544 293.967C196.052 293.605 198.559 293.243 201.067 292.881C200.874 294.652 200.68 296.422 200.54 298.199C200.442 299.454 199.752 302.769 200.683 303.752C201.963 302.446 201.552 298.538 201.666 296.797C201.728 295.867 201.507 294.046 201.895 293.221C202.32 292.316 203.495 292.329 204.56 292.081C209.076 291.032 213.55 290.152 217.92 288.49C225.301 285.683 234.125 280.942 235.774 271.799C237.492 262.267 229.939 254.008 223.58 248.692C219.773 245.51 215.722 242.754 211.532 240.196C209.574 239 207.617 237.805 205.647 236.635C204.93 236.21 202.576 235.333 202.198 234.589C201.811 233.828 202.009 231.793 201.927 230.926ZM359.854 377.31C360.212 377.498 360.571 377.686 360.928 377.874C356.944 365.683 352.998 353.548 349.667 341.129C348.059 335.135 346.43 329.146 344.768 323.169C344.05 320.591 342.287 317.04 342.777 314.369C343.307 311.478 344.578 308.404 345.561 305.655C351.857 309.904 358.285 313.936 364.685 317.993C370.423 321.631 376.258 324.866 382.037 328.466C384.997 330.31 388.052 331.555 391.142 333.062C393.653 334.287 392.678 338.03 392.642 340.531C392.515 349.36 392.521 358.22 392.022 367.037C391.841 370.249 392.075 373.936 390.171 376.609C387.736 380.027 385.477 383.511 383.256 387.109C382.424 388.457 378.928 395.755 377.625 395.595C376.774 395.491 375.991 392.536 375.565 391.835C374.647 390.325 373.306 389.025 372.085 387.809C366.812 382.556 360.961 378.856 354.881 375.017C348.703 371.117 342.38 367.486 336.086 363.788C334.664 362.952 333.132 362.349 331.719 361.495C331.161 361.158 330.054 360.622 329.703 360.019C329.177 359.117 329.355 356.618 329.246 355.539C329.022 353.336 328.619 351.046 328.597 348.827C328.576 346.634 329.804 344.75 330.694 342.838C334.6 334.443 338.396 326.028 341.795 317.379C344.474 327.422 347.288 337.418 349.917 347.476C351.289 352.728 352.943 357.895 354.554 363.066C355.377 365.707 356.204 368.346 357.025 370.988C357.665 373.045 357.997 376.058 359.854 377.31ZM303.748 188.032C305.819 188.057 307.696 187.73 309.722 187.266C310.465 187.096 311.117 187.024 311.871 186.953C312.725 186.872 313.501 186.375 314.249 186.278C314.815 186.205 315.803 186.46 316.344 186.654C317.596 187.105 317.556 186.877 317.609 188.439C317.691 190.852 317.752 193.265 317.875 195.676C318.361 205.165 319.299 214.561 320.585 223.958C320.846 225.858 321.574 228.349 321.174 230.236C320.813 231.936 319.444 233.753 318.54 235.179C316.681 238.113 312.303 239.563 309.223 240.395C305.975 241.272 302.603 241.595 299.517 242.378C298.662 242.595 297.681 242.212 296.769 242.43C295.927 242.631 295.272 243.128 294.493 243.487C292.585 244.367 290.453 244.529 288.483 245.208C284.575 246.555 280.391 246.474 276.48 247.767C275.48 248.098 274.617 248.931 273.655 249.216C272.775 249.476 271.869 249.17 270.949 249.315C268.998 249.624 267.179 250.34 266.729 252.588C265.537 251.574 265.371 251.841 265.577 250.273C265.709 249.267 266.231 248.043 266.516 247.073C267.244 244.602 267.976 242.132 268.703 239.66C270.141 234.77 271.571 229.875 272.897 224.948C274.083 220.54 275.162 216.099 276.105 211.624C276.584 209.349 276.985 207.064 277.396 204.776C277.515 204.112 277.397 203.057 278.018 202.616C278.581 202.215 279.897 203.652 280.492 204.116C284.648 207.349 294.182 216.911 299.379 211.27C302.178 208.233 302.014 202.893 301.71 198.968C301.524 196.556 301.129 194.175 300.688 191.804C300.578 191.212 299.904 189.311 300.151 188.889C300.417 188.436 303.192 188.165 303.748 188.032ZM157.694 240.813C156.587 240.946 155.481 241.079 154.375 241.213C154.476 240.253 154.385 238.809 154.723 237.915C155.192 236.68 156.337 236.542 157.598 236.029C159.591 235.22 161.624 234.516 163.596 233.645C167.875 231.754 172.134 229.836 176.416 227.946C178.292 227.116 180.497 225.76 182.535 226.437C184.732 227.167 186.901 228.655 188.955 229.745C191.281 230.979 193.605 232.216 195.93 233.453C197.02 234.033 198.11 234.613 199.2 235.193C200.913 236.104 201.14 236.197 201.276 238.277C201.964 248.922 201.913 259.98 201.613 270.638C201.459 276.078 201.631 281.547 201.268 286.977C201.24 287.394 201.269 289.751 201.025 290.072C200.682 290.525 198.269 290.678 197.692 290.792C195.443 291.233 193.179 291.38 190.907 291.598C191.442 279.217 193.408 264.58 187.487 253.256C181.54 241.878 168.826 239.414 157.694 240.813ZM261.09 119.01C260.423 117.379 259.275 116.002 258.293 114.571C257.763 113.797 256.845 112.872 256.505 111.967C256.021 110.68 256.024 110.955 256.746 109.827C257.43 108.761 257.416 108.681 258.472 108.49C259.361 108.33 260.308 108.602 261.217 108.428C262.135 108.251 264.66 107.42 264.081 105.851C264.106 105.919 262.645 105.146 262.532 105.012C262.165 104.583 262.049 103.668 261.868 103.149C261.284 101.487 261.08 100.41 261.729 98.6399C262.701 95.9963 266.54 95.2139 268.929 96.1035C270.124 96.5475 270.805 97.4893 271.342 98.6728C271.683 99.4245 271.763 100.511 272.204 101.165C272.869 102.15 272.91 102.041 274.289 101.867C276.045 101.646 277.485 100.921 279.148 100.416C280.96 99.8658 282.139 100.986 283.722 101.888C286.581 103.519 289.341 104.085 292.543 104.344C296.109 104.632 299.413 103.709 302.944 103.471C302.028 108.002 299.659 111.68 297.766 115.783C297.433 116.504 296.895 117.241 296.883 118.076C296.869 118.862 297.929 119.932 297.81 120.583C297.555 121.971 294.71 123.082 293.633 123.472C290.584 124.576 287.113 126.737 283.758 125.869C281.919 125.393 280.929 122.275 279.198 122.045C276.876 121.737 278.613 124.948 279.044 126.052C275.749 126.59 271.571 126.134 268.416 124.934C266.835 124.333 265.495 123.436 264.052 122.546C262.255 121.438 261.881 121.134 261.09 119.01ZM318.768 186.436C324.644 186.541 330.606 185.633 336.496 186.468C337.86 186.66 339.206 186.971 340.547 187.302C341.511 187.54 344.571 187.741 345.214 188.51C345.799 189.212 345.803 192.443 345.924 193.353C346.193 195.381 346.121 196.081 344.917 197.648C340.955 202.807 336.829 207.812 332.925 213.027C329.176 218.037 326.098 223.635 322.307 228.575C320.283 222.247 320.162 214.654 319.606 208.02C319.31 204.482 319.04 200.942 318.787 197.401C318.546 194.028 317.726 189.652 318.768 186.436ZM394.824 253.119C394.145 253.119 393.061 253.348 392.4 253.119C391.492 253.43 391.189 253.064 391.489 252.022C391.475 251.658 391.46 251.293 391.446 250.928C391.351 248.578 391.247 246.228 391.145 243.878C391.052 241.73 390.961 239.581 390.883 237.432C390.828 235.965 390.138 232.328 390.69 231.003C391.061 230.112 391.94 230.314 393.009 230.184C394.026 230.06 395.046 229.946 396.057 229.777C397.34 229.562 398.763 229.069 400.069 229.377C401.381 229.688 402.334 230.989 403.364 231.816C404.993 233.124 406.658 234.384 408.301 235.672C411.287 238.014 414.244 240.399 417.205 242.777C418.428 243.758 418.663 243.417 418.067 244.828C417.698 245.7 416.859 246.686 416.348 247.473C415.332 249.042 414.319 251.419 413.015 252.691C411.117 254.543 405.85 253.367 403.329 253.354C400.454 253.339 397.683 253.386 394.824 253.119ZM387.383 252.966C384.89 252.704 382.371 252.817 379.894 252.457C377.2 252.065 374.526 251.486 371.837 251.051C369.157 250.619 361.002 248.869 361.807 244.573C362.658 240.032 368.9 237.312 372.354 235.785C377.749 233.401 383.381 232.125 389.055 230.777C389.767 234.848 389.665 239.218 389.795 243.342C389.865 245.583 389.927 247.826 389.926 250.068C389.926 250.608 390.099 251.728 389.894 252.229C389.411 253.41 388.851 252.966 387.383 252.966ZM395.582 254.917H411.494C409.139 260.151 406.913 265.483 404.375 270.619C401.846 275.734 398.591 280.554 395.722 285.464C394.995 284.616 393.836 283.695 393.343 282.684C392.795 281.566 392.811 279.922 392.721 278.628C392.489 275.269 392.383 271.881 392.304 268.515C392.235 265.567 392.114 262.639 391.904 259.698C391.858 259.053 391.195 255.703 391.574 255.152C391.912 254.662 394.886 254.922 395.582 254.917ZM330.049 152.143C327.364 152.143 324.676 152.106 321.993 152.155C319.557 152.199 316.383 151.744 314.152 153.091C309.606 155.834 318.693 162.878 320.536 164.652C317.556 165.811 312.906 163.51 309.99 162.455C306.383 161.152 302.705 160.277 299.027 159.256C298.108 159.001 294.162 158.501 293.664 157.745C293.169 156.995 294.277 152.47 294.388 151.516C294.492 150.618 294.404 149.219 294.752 148.375C294.539 147.362 294.87 147.006 295.747 147.311C296.05 147.309 296.352 147.308 296.655 147.307C298.893 147.326 301.133 147.437 303.37 147.517C311.058 147.792 318.559 148.158 326.182 149.447C329.726 150.046 333.301 150.783 336.826 151.518C339.793 152.137 339.294 152.656 336.522 152.664C334.355 152.67 332.205 152.324 330.049 152.143ZM109.508 91.4368C109.052 90.8735 108.595 90.3098 108.138 89.746C109.251 89.4048 110.364 89.063 111.477 88.7218C112.661 88.3591 113.298 88.4421 112.771 87.0222C112.112 85.2436 109.101 85.0397 107.654 84.9727C102.671 84.7413 97.4375 86.4436 92.7041 87.9432C90.3947 88.6751 88.5843 89.8075 86.63 91.3137C85.777 91.9714 84.792 92.589 84.0453 93.3792C83.2696 94.2001 82.9467 95.2518 82.1883 96.0749C80.9443 97.4244 79.3524 98.0964 78.7424 100.044C78.0424 102.28 78.878 104.84 79.9142 106.789C80.9653 108.768 82.5266 110.264 83.7946 112.062C84.8012 113.488 86.9028 117.386 83.6186 116.934C81.8818 116.695 79.6292 113.515 78.3791 112.248C76.5876 110.431 74.8252 108.572 72.9277 106.879C71.2452 105.379 69.3068 103.84 67.0568 103.576C64.6855 103.298 63.5009 104.928 62.3449 106.91C61.2549 108.779 61.0799 110.604 60.3134 112.518C59.9434 113.44 59.4726 113.954 59.2551 114.96C58.921 116.507 58.8862 118.194 58.7158 119.771C58.4476 122.248 58.1954 124.195 58.6421 126.622C59.0607 128.893 59.1748 131.305 59.5273 133.615C59.9265 136.232 60.2586 138.861 60.6521 141.478C60.9852 143.696 62.2528 146.854 61.0093 148.917C58.0219 153.872 54.4378 146.577 53.4942 143.852C51.8352 139.062 50.9909 133.827 49.5269 128.939C48.7429 126.325 48.0587 123.687 47.6094 120.981C47.2374 118.743 47.4206 116.016 46.2784 114.023C45.3906 112.474 43.8115 111.298 42.0782 111.771C39.9096 112.363 39.0765 115.729 38.4384 117.775C36.7543 123.172 37.3741 128.033 38.0598 133.537C38.377 136.085 38.6799 138.638 39.2249 141.144C39.5928 142.834 41.1162 146.257 38.8514 147.176C35.6404 148.48 32.2369 138.589 31.3219 136.355C28.9261 130.505 28.0085 124.703 27.0209 118.434C26.7943 116.993 26.6208 115.521 26.2815 114.104C25.9862 112.871 25.104 111.625 25.0247 110.392C24.9454 109.158 25.7063 108.297 24.9265 107.085C24.2776 106.077 23.1053 106.016 22.046 106.007C19.558 105.986 17.178 107.16 14.8635 108.011C12.7092 108.802 9.52271 110.54 7.20105 109.981C14.4874 102.037 21.7553 94.183 30.4459 87.9965C34.4813 85.1232 38.5198 82.3621 42.8817 80.0191C47.2998 77.6459 52.3628 76.0431 57.0947 74.6073C59.6681 73.8259 62.2272 72.9407 64.7684 72.0445C67.0307 71.2467 69.3079 71.0956 71.5231 70.1906C76.3358 68.2251 81.7134 67.4635 86.6966 66.07C88.8969 65.4552 91.1214 64.9277 93.3269 64.3579C95.645 63.7589 98.9016 62.7188 101.263 62.8199C103.28 62.9061 103.961 65.3881 104.931 67.1146C106.34 69.6208 107.541 72.2248 108.649 74.898C110.918 80.3752 113.313 86.0337 114.936 91.756C115.827 94.8979 116.707 98.0431 117.583 101.19C118.34 103.914 120.235 107.844 119.732 110.64C116 104.464 112.525 98.0508 109.508 91.4368ZM283.254 147.2C285.234 147.297 287.214 147.393 289.194 147.49C287.22 154.457 287.495 161.876 287.495 169.098C278.269 167.93 268.969 167.731 259.689 167.812C261.394 164.28 260.733 159.698 260.247 155.916C259.963 153.702 259.804 151.57 259.845 149.336C259.884 147.241 259.322 145.479 261.389 144.831C263.029 144.318 264.066 145.174 265.628 145.564C267.5 146.032 269.538 146.088 271.443 146.343C275.408 146.872 279.232 147.183 283.254 147.2ZM336.416 160.769C330.47 158.998 324.152 159.651 318.177 158.305C319.536 156.973 322.096 157.762 323.901 157.873C325.953 157.998 328.004 158.09 330.056 158.197C332.057 158.302 337.608 158.139 338.33 160.873C337.693 160.839 337.054 160.804 336.416 160.769ZM118.864 62.0385C126.644 62.7715 134.792 62.6578 142.516 64.1155C151.362 65.7849 160.583 66.8322 169.16 69.7741C177.573 72.6605 186.154 74.6809 194.448 78.0701C202.51 81.3648 210.276 84.8699 217.869 89.2767C221.585 91.4334 225.201 93.7198 228.744 96.1969C232.203 98.6151 235.993 100.598 239.344 103.161C242.327 105.443 244.901 107.536 247.502 110.332C250.283 113.321 252.988 116.391 255.772 119.375C258.095 121.865 256.624 127.952 256.477 131.265C256.272 135.859 255.92 140.388 255.395 144.951C254.896 149.3 254.383 153.974 255.042 158.313C255.319 160.137 256.275 163.288 255.819 165.109C255.454 166.568 253.031 167.637 251.795 168.112C250.284 168.694 248.74 168.448 247.189 169.188C245.457 170.015 243.996 171.046 242.157 171.48C239.889 172.016 237.34 172.467 235.01 172.483C232.855 172.498 230.693 173.248 228.544 173.709C225.049 174.461 221.637 174.695 221.855 179.221C222.106 184.443 224.036 188.924 225.185 193.882C223.631 193.882 222.548 193.988 221.125 193.396C219.464 192.706 217.692 192.523 215.947 192.225C212.09 191.566 208.331 191.355 204.449 190.935C197.338 190.164 190.104 190.257 182.987 190.338C179.384 190.379 175.476 190.678 171.922 191.28C168.277 191.898 164.501 192.284 160.968 193.47C157.988 194.47 154.911 195.151 151.871 196.035C150.5 196.432 148.859 196.755 147.564 197.201C145.689 197.846 144.686 199.223 142.52 199.192C143.129 194.883 144.561 190.887 145.425 186.615C146.327 182.153 148.126 178.206 150.111 173.997C150.997 172.119 151.653 170.127 152.507 168.233C153.456 166.127 154.792 164.382 155.938 162.413C158.284 158.385 160.789 154.51 163.094 150.453C165.106 146.911 167.404 143.516 169.607 140.097C172.029 136.338 175.394 133.501 178.142 130.053C179.302 128.596 180.407 127.242 181.706 125.906C182.903 124.675 184.601 121.95 186.434 121.823C187.487 121.749 189.312 122.386 190.317 122.727C192.176 123.359 194.149 123.771 196.069 124.328C198.171 124.937 200.236 125.73 202.341 126.309C203.184 126.541 204.184 126.431 204.983 126.693C205.818 126.968 206.485 127.573 207.398 127.85C211.904 129.223 216.383 130.781 220.923 132.031C225.596 133.318 230.342 134.413 234.871 136.236C235.735 136.584 236.696 137.406 237.359 136.865C237.854 136.462 238.173 135.323 238.043 134.658C237.609 132.445 234.312 131.645 232.724 130.757C228.47 128.375 224.244 126.696 219.672 125.079C217.42 124.284 215.176 123.434 212.893 122.747C210.984 122.172 208.998 121.201 207.046 120.907C205.31 120.645 204.078 119.911 202.355 119.261C199.817 118.304 197.206 117.517 194.627 116.699C190.218 115.3 185.545 114.712 181.034 113.774C170.584 111.601 159.734 110.513 149.07 110.648C143.694 110.716 138.071 110.547 132.757 111.497C131.476 111.725 128.783 111.681 127.9 112.916C127.425 113.579 127.682 114.565 127.56 115.283C127.355 116.495 126.739 117.06 126.205 118.165C125.071 112.188 123.768 106.339 122.303 100.45C120.979 95.121 119.753 89.6949 117.984 84.4402C116.111 78.8806 113.841 72.9858 111.043 67.8976C110.466 66.8503 109.03 65.1865 108.907 64.015C108.779 62.8061 110.356 61.8698 111.44 61.7352C113.872 61.4335 116.476 61.95 118.864 62.0385ZM66.5983 147.43C65.8066 139.14 63.4927 130.469 64.7853 122.146C65.3323 118.623 65.7596 115.259 67.4007 112.079C68.2307 110.471 68.5633 109.289 70.1476 110.238C71.7513 111.198 73.2276 113.569 74.5571 114.943C77.0005 117.469 79.5596 120.07 82.4856 121.946C84.7904 123.423 89.3682 124.823 91.1009 121.628C92.7517 118.583 90.5498 114.333 88.9691 111.821C87.1602 108.946 83.7337 106.284 85.6567 102.738C86.4842 101.211 87.675 100.811 88.9266 99.8097C90.0099 98.9426 90.9177 97.8195 92.0016 96.937C95.1414 94.3792 98.5853 93.2836 102.211 91.8219C103.885 91.1466 104.105 90.5114 105.072 92.0549C106.122 93.7314 106.697 96.0809 107.456 97.9349C108.977 101.649 110.599 105.168 112.56 108.631C114.539 112.125 116.293 115.776 118.163 119.34C118.869 120.684 119.533 122.051 120.367 123.313C120.821 124 121.383 124.612 121.752 125.364C122.298 126.475 122.055 127.489 122.395 128.595C123.862 133.37 126.001 126.705 126.41 125.146C126.874 123.374 127.995 121.992 128.722 120.338C129.322 118.973 129.732 116.944 131.181 116.301C132.368 115.774 133.898 116.497 135.109 116.567C137.335 116.697 139.578 116.503 141.813 116.653C143.904 116.792 145.989 117.008 148.079 117.145C150.171 117.283 152.261 116.903 154.325 117.14C158.029 117.564 161.816 117.496 165.513 118.084C169.85 118.773 174.143 119.508 178.492 120.082C177.482 122.134 175.387 123.024 173.73 124.488C172.25 125.797 171.077 127.308 169.586 128.553C168.073 129.817 167.174 131.686 165.922 133.205C164.695 134.692 163.559 135.94 162.484 137.604C157.295 145.641 151.944 153.381 147.664 162.067C145.498 166.463 143.43 171.167 141.95 175.883C140.363 180.943 139.584 186.368 138.641 191.599C138.171 194.206 137.925 196.407 138.44 199.029C138.575 199.653 138.715 200.276 138.861 200.898C139.312 201.642 139.146 202.124 138.36 202.346C137.9 203.065 137.273 203.335 137.233 204.318C137.202 205.066 137.59 205.932 138.189 206.353C139.346 207.166 139.346 206.068 140.539 206.311C140.986 206.571 141.433 206.831 141.88 207.09C142.116 206.704 142.359 206.323 142.608 205.947C143.368 205.171 143.973 205.242 144.967 205.053C144.462 211.299 145.267 216.875 146.548 222.968C147.164 225.898 148.219 228.765 148.752 231.7C149.346 234.979 148.047 236.472 146.038 238.659C146.548 238.945 147.441 239.255 147.862 239.682C148.531 240.363 148.36 240.447 148.36 241.512C148.359 243.463 148.707 245.385 148.993 247.304C149.521 250.856 150.003 254.532 151.142 257.933C153.211 264.111 156.555 270.527 159.962 275.968C161.869 279.014 163.78 282.473 166.17 285.101C168.568 287.737 170.946 290.398 173.339 293.042C178.048 298.248 183.194 301.844 188.836 305.742C191.07 307.286 193.424 308.977 195.345 310.899C197.298 312.852 199.895 314.219 202.229 315.638C203.27 316.271 204.011 317.18 205.135 317.7C206.192 318.187 206.93 318.346 207.815 318.986C210.013 320.573 212.387 321.93 214.807 323.126C217.758 324.586 220.663 326.284 223.694 327.529C225.076 328.097 226.375 328.716 227.712 329.379C229.16 330.098 230.722 330.569 232.207 331.334C233.462 331.981 234.732 332.357 236.009 332.886C237.052 333.317 237.871 334.016 238.935 334.468C241.144 335.405 243.155 335.909 245.301 337.014C248.153 338.482 251.532 339.166 254.536 340.222C257.89 341.402 261.369 342.576 264.811 343.412C266.275 343.768 267.523 344.233 268.937 344.772C269.859 345.124 270.915 345.316 271.936 345.649C274.757 346.573 277.577 347.463 280.413 348.248C285.954 349.783 291.614 351.626 296.988 353.709C299.805 354.801 302.663 356.115 305.366 357.506C308.422 359.078 311.714 359.985 314.781 361.541C320.705 364.546 326.609 367.64 332.465 370.795C335.54 372.452 338.572 374.159 341.574 375.961C342.663 376.615 343.855 376.885 344.937 377.526C346.352 378.365 347.514 379.597 348.964 380.428C354.552 383.633 360.255 386.652 365.387 390.706C368.073 392.828 370.959 395.001 373.281 397.585C374.047 398.437 375.374 399.757 375.513 400.994C375.717 402.824 375.525 401.14 374.935 402.269C374.118 402.375 373.934 402.713 374.379 403.28C374.585 403.546 374.848 403.682 375.169 403.687C376.201 403.911 378.132 402.737 378.962 402.246C380.399 401.395 381.162 400.32 382.085 398.892C384.09 395.794 386.046 392.668 388.111 389.613C389.968 386.866 391.786 383.842 393.899 381.319C395.332 379.609 395.439 380.356 397.033 381.321C398.218 382.038 399.595 382.344 400.824 383.019C405.506 385.594 410.652 387.496 415.454 389.291C416.547 389.7 417.13 390.348 418.091 390.912C419.315 391.632 420.866 391.983 422.175 392.494C425.781 393.902 429.369 395.364 432.95 396.845C435.714 397.99 438.37 398.891 440.534 401.003C441.395 401.844 442.438 402.446 443.327 403.296C444.363 404.284 445.763 405.893 447.067 406.453L447.862 407.119C448.399 406.717 448.937 406.317 449.476 405.917C450.01 405.52 450.544 405.125 451.078 404.726C452.417 403.727 453.746 402.713 455.077 401.701C458.096 399.403 461.134 397.129 463.942 394.535C468.93 389.93 474.105 385.571 479.32 381.258C484.794 376.731 490.131 371.993 495.793 367.738C500.924 363.881 506.523 360.624 511.498 356.553C514.003 354.504 516.501 352.442 519.058 350.457C519.197 350.35 521.278 348.979 521.299 348.827C521.334 348.546 520.649 347.815 520.447 347.58C519.49 346.463 518.43 345.468 517.477 344.339C513.034 339.078 507.232 339.261 501.1 339.013C498.32 338.9 495.304 340.277 492.663 341.215C489.434 342.361 486.318 344.043 483.199 345.496C476.77 348.49 470.135 351.049 463.641 353.822C461.088 354.912 458.544 355.444 455.948 356.193C453.314 356.954 450.601 356.229 447.784 356.284C446.322 356.312 444.94 356.403 443.468 356.314C442.594 356.262 441.587 356.084 440.724 356.099C440.024 356.113 439.298 356.423 438.654 356.344C435.836 356.001 432.859 355.52 429.953 355.127C427.067 354.736 424.09 354.542 421.242 353.931C419.808 353.623 418.393 353.188 417.014 352.666C415.816 352.212 413.639 351.698 412.657 350.779C411.778 349.958 412.162 349.947 412.652 348.607C412.846 348.077 413.047 347.274 413.334 346.763C414.112 345.384 414.863 344.951 414.41 343.225C413.614 340.183 410.898 338.241 408.573 336.742C403.336 333.369 398.547 329.041 393.032 326.179C381.67 320.282 371.315 312.621 360.234 306.145C348.054 299.027 336.533 290.674 324.183 283.856C312.688 277.51 301.245 271.126 289.655 264.98C283.995 261.98 277.594 259.234 272.459 255.3C275.304 254.921 278.158 254.432 281.013 254.16C282.337 254.034 283.677 254.151 284.994 253.925C286.466 253.672 287.859 253.033 289.329 252.767C291.856 252.308 294.128 251.378 296.658 251.035C299.37 250.667 302.026 249.811 304.751 249.571C310.451 249.07 315.596 246.812 320.592 243.968C321.829 243.263 322.846 243.666 324.031 243.187C324.684 242.924 325.377 241.871 326.11 241.306C328.13 239.748 329.864 237.91 331.783 236.209C335.819 245.933 343.743 252.547 351.304 259.071C355.135 262.374 359.292 265.175 363.161 268.416C366.161 270.93 368.885 273.179 372.088 275.178C375.163 277.095 378.051 279.686 380.983 281.99C382.97 283.551 385.299 284.73 387.412 286.086C389.138 287.194 392.509 288.846 392.98 290.855C393.365 292.497 392.613 294.451 394.947 293.696C397.036 293.021 398.551 290.53 399.768 288.776C402.915 284.236 405.85 279.542 408.772 274.835C410.342 278.124 413.049 280.493 415.551 282.932C417.071 284.414 418.65 285.789 420.292 287.111C421.088 287.753 421.893 288.382 422.691 289.022C423.005 289.275 423.718 289.664 423.921 290.02C424.397 290.853 424.108 290.475 424.034 291.482C423.918 293.06 423.428 294.301 424.26 295.813C425.04 297.232 426.743 297.838 427.936 298.807C430.775 301.115 433.761 303.567 436.91 305.369C437.625 305.778 438.301 306.132 438.967 306.633C440.078 307.467 439.875 307.77 440.995 306.97C442.747 305.718 444.26 303.639 445.841 302.129C449.153 298.965 452.501 295.841 455.893 292.777C462.356 286.936 469.011 281.386 475.394 275.44C481.46 269.791 487.963 264.927 494.225 259.556C495.943 258.083 497.64 256.579 499.335 255.076C500.845 253.738 503.295 252.263 504.411 250.551C506.033 248.064 499.689 244.666 497.776 244.16C494.476 243.288 490.208 243.786 486.903 244.501C483.434 245.251 479.901 247.76 476.661 249.323C473.009 251.084 469.29 252.607 465.612 254.269C463.971 255.011 462.232 255.602 460.709 256.601C459.093 257.661 457.65 258.87 455.932 259.759C453.952 260.782 451.894 261.737 449.811 262.494C448.868 262.837 447.852 263.181 446.86 263.32C445.456 263.516 445.646 262.822 444.48 262.434C443.489 262.104 443.254 262.975 442.362 263.217C441.523 263.446 440.896 263.214 440.169 262.73C438.549 261.65 437.107 260.161 435.486 259.037C433.983 257.993 432.325 257.018 430.916 255.837C430.288 255.311 429.823 254.589 429.204 254.055C428.212 253.197 427.818 253.538 426.66 252.947C425.712 252.464 424.853 251.565 423.952 250.97C423.393 250.6 422.036 250.133 421.675 249.535C420.728 247.964 422.345 246.872 423.794 247.336C424.011 245.979 425.125 242.758 424.644 241.486C424.218 240.36 423.101 240.571 422.16 239.975C418.628 237.736 416.02 233.666 412.715 231.035C409.599 228.554 406.85 225.592 403.764 223.066C401.12 220.901 398.23 218.788 395.822 216.454C392.976 213.694 389.331 211.547 386.236 209.084C383.039 206.54 380.068 203.709 376.905 201.136C373.862 198.66 370.873 196.075 367.746 193.718C364.935 191.6 361.99 189.665 359.237 187.518C357.73 186.342 356.082 185.309 354.361 184.537C352.65 183.769 351.153 182.868 349.482 182.041C346.162 180.398 341.838 179.262 338.227 178.791C334.257 178.274 330.271 177.809 326.263 177.806C324.128 177.804 322.054 178.24 319.932 178.379C317.983 178.505 315.874 179.035 313.939 178.965C313.062 178.934 312.3 178.535 311.451 178.664C310.742 178.771 310.126 179.23 309.365 179.311C307.672 179.49 305.97 179.311 304.257 179.546C300.324 180.086 296.385 180.855 292.443 181.284C288.244 181.74 284.08 181.827 279.903 182.596C275.82 183.347 271.712 184.126 267.653 184.994C259.027 186.841 250.311 188.643 241.822 191.385C239.837 192.026 237.841 192.635 235.933 193.514C235.008 193.939 234.118 194.456 233.153 194.775C231.77 195.231 231.498 195.404 230.785 194.158C229.559 192.014 228.884 189.178 227.994 186.846C227.114 184.537 226.046 182.211 225.536 179.8C227.019 179.548 228.89 180.038 230.421 180.094C232.292 180.163 234.143 180.12 236.013 180.108C239.78 180.084 242.726 178.889 246.291 177.634C249.296 176.576 253.297 175.97 255.589 173.548C256.818 172.249 257.227 172.021 259.074 172.254C260.938 172.488 262.778 172.893 264.66 172.96C271.751 173.212 278.811 174.541 285.934 174.804C287.861 174.875 292.681 175.855 292.366 172.346C292.3 171.617 291.78 170.985 291.679 170.235C291.57 169.431 291.758 168.616 291.875 167.83C292.154 165.971 292.445 164.113 292.723 162.254C299.219 164.492 305.796 166.306 312.416 168.079C315.161 168.814 319.571 170.505 322.407 169.578C325.149 168.682 323.561 164.533 322.707 162.548C328.155 163.883 333.966 166.066 339.522 166.568C341.212 166.72 342.857 167.122 343.251 164.928C343.564 163.179 342.388 161.041 341.788 159.506C346.052 159.097 350.467 159.136 349.665 153.267C348.929 147.883 344.764 146.811 340.329 145.827C334.855 144.613 329.265 144.208 323.755 143.225C318.961 142.369 313.731 141.415 308.835 141.847C306.243 142.075 303.636 142.127 301.045 142.385C299.823 142.506 298.647 142.71 297.464 143.068C296.373 143.398 294.846 144.42 293.728 144.438C292.039 144.467 290.003 142.015 288.187 141.449C285.938 140.746 283.514 140.619 281.19 140.447C278.555 140.253 275.917 140.145 273.285 139.916C272.684 139.863 270.416 140.023 269.942 139.645C269.252 139.095 269.711 136.274 269.759 135.115C269.804 134.043 269.612 132.036 270.304 131.615C270.954 131.221 272.848 131.762 273.488 131.872C276.139 132.328 278.658 132.276 281.3 132.16C282.52 132.106 283.691 132.455 284.9 132.283C286.196 132.099 287.501 131.631 288.792 131.371C291.588 130.806 294.136 130.104 296.546 128.422C298.661 126.945 301.165 125.946 302.347 123.36C303.212 121.466 303.565 117.812 301.019 117.274C302.752 114.589 303.949 111.572 304.868 108.469C305.035 107.906 305.145 107.059 305.394 106.568C306.275 104.833 305.458 106.372 306.714 105.678C307.955 104.993 308.849 104.451 309.819 103.259C311.365 101.358 312.016 99.019 312.211 96.5425C312.476 93.1792 312.971 89.3866 312.514 86.0403C311.722 80.2439 307.777 75.8887 303.768 72.383C301.592 70.4796 298.727 69.7708 296.174 68.6158C293.71 67.5003 290.958 66.331 288.362 66.0695C286.019 65.8332 283.734 65.0117 281.389 64.6804C278.165 64.2243 274.937 64.3947 271.698 64.2562C270.207 64.1925 268.719 63.9666 267.235 63.7947C266.396 63.6974 264.979 63.8012 264.211 63.4446C262.955 62.86 263.634 64.0875 263.185 62.2995C262.331 58.8982 261.634 55.7085 260.341 52.4034C259.137 49.3241 257.674 46.38 255.74 43.7474C253.926 41.2781 251.574 39.472 249.438 37.3625C247.855 35.7998 246.059 34.3882 244.253 33.1244C243.221 32.4018 242.07 32.0111 241.062 31.3732C239.809 30.5819 238.704 29.9819 237.294 29.4973C234.27 28.4576 231.269 27.3537 228.057 27.4081C224.594 27.4664 221.123 26.601 217.751 27.6983C211.491 29.7363 208.424 37.0213 208.529 43.7112C206.388 43.1375 204.517 42.0331 202.249 41.9386C200.16 41.8517 197.678 42.0463 195.626 42.4628C191.644 43.2711 187.548 45.6481 185.174 49.2505C182.909 52.6864 182.57 57.2482 183.962 61.1462C184.628 63.0122 185.685 64.6722 186.811 66.2486C187.636 67.4047 189.477 68.6845 189.564 70.2334C174.15 65.2304 158.674 61.7039 142.729 59.4213C134.647 58.2647 126.551 58.8438 118.46 58.1828C115.004 57.9004 111.248 58.2955 107.675 58.3103C106.166 58.3169 104.993 58.0916 103.899 57.0432C102.792 55.9827 101.907 54.6837 100.616 56.2146C100.287 56.6053 100.218 57.5504 99.7746 57.8443C99.2372 58.2004 97.675 57.9559 97.0323 57.9982C94.7853 58.1455 92.5926 58.5548 90.3866 59.0263C86.3389 59.8917 82.3173 60.7665 78.3177 61.8649C70.7023 63.9567 63.1877 65.9799 55.6823 68.463C48.0239 70.9967 40.2847 74.1227 33.2235 78.224C29.8031 80.2103 26.3869 82.6901 23.2424 85.1474C21.7804 86.2903 20.4699 87.5267 19.1988 88.9047C17.8392 90.3779 16.1766 91.3719 14.8303 92.8561C11.9017 96.0843 8.98541 99.5086 6.32855 103.006C4.94128 104.832 3.66919 106.758 2.4339 108.704C1.56702 110.07 -0.717285 112.57 -0.191284 114.334C0.0891724 115.275 1.0686 115.934 1.96564 115.703C2.26501 115.626 2.51471 115.209 2.77008 115.169C3.63641 115.037 2.84833 114.71 3.8595 115.15C5.86853 116.025 6.50922 117.781 9.06165 117.382C13.4005 116.702 17.4814 114.502 21.4273 112.583C22.5541 117.21 22.7138 122.006 23.7004 126.689C24.6624 131.256 26.2667 135.613 28.2035 139.802C29.9024 143.478 32.0839 147.396 35.0912 150.023C37.3858 152.028 43.049 154.518 44.7346 150.25C45.4505 148.438 44.3856 145.621 44.0842 143.755C43.6794 141.252 43.2332 138.741 42.9896 136.213C42.7921 134.158 42.6923 132.092 42.5081 130.035C42.349 128.266 41.9089 124.467 42.8356 122.904C43.3939 121.963 43.4425 122.887 43.7675 123.827C44.1615 124.967 44.489 126.098 44.7771 127.272C45.3901 129.767 45.9427 132.28 46.5225 134.784C47.5583 139.257 48.6989 143.633 50.8573 147.656C52.7742 151.228 55.472 155.147 59.5719 155.732C61.4914 156.006 63.9937 155.064 65.4587 153.675C67.1028 152.117 66.6116 149.548 66.5983 147.43Z" fill="black"/>
<path fill-rule="evenodd" clip-rule="evenodd" d="M160.216 330.121C157.963 329.644 156.066 327.713 154.226 326.262C151.879 324.412 149.653 322.396 147.374 320.453C143.08 316.79 139.184 312.774 135.479 308.405C128.169 299.787 122.666 288.694 120.165 277.36C118.899 271.625 117.334 264.905 118.052 258.979C118.302 256.92 118.683 256.542 120.563 256.308C121.412 256.203 123.566 255.94 124.331 256.299C126.312 257.228 127.382 261.184 127.969 263.172C129.705 269.042 130.726 275.121 132.295 281.038C133.832 286.839 136.31 292.724 138.76 298.148C144.212 310.217 151.789 320.314 160.216 330.121ZM115.521 263.49C116.868 279.924 121.117 295.582 130.645 308.817C135.174 315.108 140.5 320.581 146.272 325.553C152.233 330.687 158.32 335.522 165.084 339.35C166.883 340.37 168.686 341.385 170.508 342.357C171.518 342.896 174.068 344.881 175.233 344.567C176.167 344.315 176.41 343.54 176.556 342.531C176.882 340.266 175.513 339.136 174.127 337.682C168.562 331.84 162.98 325.977 157.777 319.762C147.501 307.489 139.782 292.792 135.491 276.934C134.169 272.052 132.99 267.115 131.563 262.267C130.694 259.313 129.462 254.056 126.574 252.583C125.025 251.794 123.221 252.562 121.592 252.089C120.065 251.645 119.053 250.739 117.751 252.258C115.467 254.923 115.365 260.15 115.521 263.49Z" fill="black"/>
<path fill-rule="evenodd" clip-rule="evenodd" d="M522.613 358.314C523.754 358.748 523.801 359.179 524.324 357.919C524.587 357.283 524.516 356.414 524.454 355.754C524.305 354.173 523.531 352.713 522.894 351.312C516.903 356.619 510.682 361.402 504.258 366.091C497.387 371.105 490.828 376.68 484.33 382.234C478.511 387.208 472.622 392.035 466.864 397.072C464.087 399.501 460.921 401.384 458.281 403.887C456.148 405.91 452.61 406.817 450.791 409.197C453.673 411.046 457.521 412.535 460.715 410.935C464.238 409.17 466.94 406.87 470.076 404.478C471.691 403.245 473.371 402.126 475.012 400.934C476.455 399.885 477.473 398.354 478.934 397.371C482.003 395.303 485.152 393.025 488.064 390.664C491.055 388.239 494.362 386.31 497.248 383.733C500.207 381.09 503.519 379.34 506.608 376.934C513.155 371.836 518.92 366.103 522.613 358.314Z" fill="black"/>
<path fill-rule="evenodd" clip-rule="evenodd" d="M345.977 87.6271C346.058 88.0964 346.139 88.5656 346.221 89.0354C346.171 89.0475 342.254 80.9207 341.605 79.9393C339.403 76.6122 336.539 73.844 333.777 71.0653C327.927 65.1792 321.08 60.4284 315.347 54.4375C313.461 52.4665 310.082 49.4801 310.828 46.1475C311.569 42.8352 317.829 43.5083 319.972 44.4666C323.333 45.9694 326.062 49.1125 328.567 51.8511C331.298 54.8386 334.052 57.7926 336.367 61.1735C338.863 64.8193 341.233 68.7679 342.762 72.9989C344.476 77.7387 345.145 82.6439 345.977 87.6271ZM344.69 102.169C347.349 103.049 344.016 103.643 345.057 105.169C346.199 106.841 348.119 101.688 348.406 100.715C350.099 94.9654 349.342 87.981 348.418 82.1439C347.951 79.1992 347.65 76.2062 347.02 73.2934C346.406 70.4531 345.069 67.7541 343.834 65.1704C341.361 60.0009 338.086 55.1848 334.369 50.9697C330.641 46.7409 326.486 42.5099 321.567 39.9065C317.502 37.7564 311.06 39.2482 309.157 43.9446C307.213 48.7438 309.842 53.9715 312.951 57.3459C317.007 61.7466 321.427 66.1177 325.982 69.9124C328.323 71.8631 330.286 74.222 332.561 76.2573C334.981 78.4239 337.076 80.6031 338.866 83.4049C340.6 86.1199 342.384 88.8327 343.511 91.9147C344.745 95.2896 344.69 98.598 344.69 102.169Z" fill="black"/>
<path fill-rule="evenodd" clip-rule="evenodd" d="M451.024 309.126C457.132 304.902 463.262 301.194 468.582 295.807C473.834 290.489 478.423 284.491 484.269 279.877C487.186 277.575 490.196 275.414 493.061 273.036C495.78 270.779 498.906 268.846 501.364 266.272C504.64 262.84 510.773 256.464 506.588 251.347C501.393 257.981 494.265 263.211 487.767 268.247C480.915 273.558 474.626 279.753 468.127 285.539C461.866 291.113 455.626 296.738 449.516 302.459C447.912 303.962 446.365 305.54 444.742 307.019C444.543 307.2 442.861 308.344 442.861 308.649C442.861 309.38 444.164 309.836 444.629 310.039C445.362 310.36 447.346 311.158 448.177 310.888C448.613 310.746 448.621 310.365 448.935 310.138C449.116 309.772 449.327 309.428 449.566 309.104C450.052 309.112 450.538 309.12 451.024 309.126Z" fill="black"/>
<path fill-rule="evenodd" clip-rule="evenodd" d="M91.3966 235.481C95.7513 235.361 102.38 235.347 102.136 241.732C102.015 244.894 100.419 247.216 99.1072 249.921C97.7302 252.763 96.7093 255.699 96.305 258.884C94.6701 271.779 99.0565 284.376 103.024 296.297C94.5033 288.912 88.3498 278.637 85.1188 267.374C83.5525 261.913 82.943 254.892 83.4491 249.205C83.7024 246.36 84.6798 243.808 85.8567 241.273C86.4478 239.999 87.0388 238.545 87.9814 237.514C88.9255 236.481 90.2345 236.137 91.3966 235.481ZM106.587 303.682C109.401 298.715 104.971 291.4 103.523 286.556C101.792 280.764 100.194 274.734 99.4541 268.694C98.6789 262.366 99.6798 257.447 102.411 251.858C104.853 246.862 106.303 240.208 103.588 234.921C102.494 232.794 100.88 232.532 98.9603 231.683C96.6044 230.642 95.9555 228.88 93.0643 229.159C87.9057 229.657 85.519 234.91 83.6001 239.386C79.1256 249.821 80.342 263.287 84.1578 273.765C86.3541 279.794 88.859 286.054 92.5879 291.188C94.4163 293.705 96.5655 295.887 98.7955 297.987C101.208 300.258 103.37 302.996 106.587 303.682Z" fill="black"/>
<path fill-rule="evenodd" clip-rule="evenodd" d="M401.172 122.519C407.973 123.987 414.179 127.278 415.268 135.485C416.258 142.944 411.527 149.844 405.717 153.335C399.433 157.113 391.559 157.74 385.298 153.554C378.706 149.147 377.211 140.316 381.223 133.388C385.7 125.656 393.199 123.374 401.172 122.519ZM396.801 118.941C388.703 120.215 381.185 126.404 378.457 134.739C375.645 143.331 378.229 152.778 385.674 157.486C400.722 167.001 420.833 151.144 417.201 132.917C416.279 128.29 413.66 124.706 410.103 121.996C406.175 119.005 401.426 118.923 396.801 118.941Z" fill="black"/>
<path fill-rule="evenodd" clip-rule="evenodd" d="M108.867 31.6857C118.624 26.9481 128.383 22.2104 138.141 17.4728C138.541 22.2225 138.941 26.9717 139.342 31.7214C139.45 33.0066 139.894 34.7551 139.705 36.0233C139.503 37.3766 139.934 37.2321 138.291 37.0398C136.19 36.7931 134.081 36.2359 132.002 35.8375C128.263 35.121 124.287 34.9166 120.628 33.8627C118.761 33.3248 116.972 33.2572 115.077 32.9319C112.995 32.5747 110.969 31.9132 108.867 31.6857ZM141.875 40.8675C141.875 35.5172 141.322 30.2389 140.866 24.9133C140.455 20.1219 140.297 15.5546 138.841 10.9895C137.48 13.643 133.713 14.7035 131.381 16.0689C128.169 17.9503 124.747 19.3356 121.459 21.0494C118.229 22.7325 115.118 24.665 111.884 26.3442C110.245 27.1959 108.58 27.9904 106.943 28.8487C105.919 29.3861 103.489 30.251 102.852 31.2488C100.917 34.2776 107.54 34.5704 108.818 34.8375C112.651 35.6403 116.529 36.0925 120.355 36.9178C123.922 37.6882 127.496 38.403 131.076 39.1014C134.619 39.7927 138.27 40.8675 141.875 40.8675Z" fill="black"/>
<path fill-rule="evenodd" clip-rule="evenodd" d="M442.757 173.319C438.915 172.89 435.088 172.272 431.251 171.865C427.616 171.478 424.402 171.067 421.082 169.279C425.616 167.811 430.161 166.421 434.733 165.094C437.001 164.437 439.265 163.74 441.543 163.126C443.305 162.65 444.841 162.377 445.519 160.311C446.307 157.907 444.115 158.271 442.748 158.882C440.863 159.724 438.809 160.248 436.855 160.949C432.495 162.512 428.107 163.95 423.705 165.371C422.337 165.813 414.408 167.447 417.265 170.288C418.488 171.504 421.216 172.171 422.711 173.044C424.628 174.164 426.715 174.61 428.848 175.056C433.293 175.985 437.907 176.341 442.407 177.147C444.705 177.558 447.002 177.97 449.3 178.381C450.646 178.622 451.165 178.598 451.516 176.986C451.772 175.815 451.438 174.643 451.193 173.508C450.57 170.625 449.876 167.757 449.19 164.891C448.929 163.797 448.467 158.99 447.559 158.464C445.498 157.271 447.088 163.926 447.241 164.741C447.819 167.815 448.506 170.867 448.815 173.987C446.791 173.79 444.773 173.586 442.757 173.319Z" fill="black"/>
<path fill-rule="evenodd" clip-rule="evenodd" d="M388.28 197.791C387.518 199.846 388.784 200.306 390.32 201.018C392.312 201.942 394.272 202.917 396.301 203.749C400.569 205.498 404.868 207.122 409.035 209.146C416.981 213.005 425.035 216.71 432.858 220.842C434.802 221.869 436.748 222.893 438.709 223.882C440.738 224.905 443.064 226.626 445.234 227.211C447.127 227.721 447.325 226.274 446.203 224.94C444.757 223.221 442.521 221.938 440.705 220.742C433.231 215.823 425.074 211.818 416.91 208.434C407.475 204.522 398.013 200.768 388.28 197.791Z" fill="black"/>
<path fill-rule="evenodd" clip-rule="evenodd" d="M367.532 81.1761C367.806 74.9263 367.027 68.6595 367.491 62.4262C375.472 70.0233 371.54 81.764 366.949 90.0073L367.532 81.1761ZM364.078 80.8189C364.027 83.8718 363.866 86.9231 364.142 89.9606C364.432 93.1492 363.04 94.7916 361.224 97.1401C362.766 98.8204 366.304 94.9026 367.281 93.7476C369.292 91.3695 370.789 88.21 372.121 85.3543C374.958 79.271 376.912 72.7581 374.641 66.0792C373.799 63.6037 372.77 60.2382 370.541 58.7969C368.094 57.2144 366.222 59.4464 365.207 61.7421C362.728 67.3435 364.618 74.8065 364.078 80.8189Z" fill="black"/>
<path fill-rule="evenodd" clip-rule="evenodd" d="M279.531 391.483C275.851 391.796 272.226 392.105 268.546 392.355C269.181 386.938 269.817 381.521 270.452 376.104C272.581 376.634 274.71 377.163 276.84 377.691C277.846 377.941 279.39 378.007 280.281 378.547C280.614 378.629 280.948 378.712 281.28 378.795C281.29 379.498 281.297 380.201 281.303 380.905C281.328 382.985 281.384 385.063 281.464 387.142C281.498 388.013 281.781 389.288 281.587 390.151C281.931 391.023 281.712 391.394 280.928 391.263C280.462 391.337 279.997 391.41 279.531 391.483ZM282.065 395.399C284.949 393.857 284.161 389.145 284.156 386.145C284.153 384.237 284.027 382.341 283.981 380.435C283.948 379.125 284.227 377.504 283.808 376.239C283.061 373.988 279.408 374.049 277.529 374.207C276.137 374.323 274.971 374.248 273.543 374.149C272.84 374.101 272.055 374.245 271.363 374.022C271.214 373.974 269.807 372.92 269.869 372.917C267.346 373.021 267.312 379.518 267.149 381.166C266.744 385.23 266.378 389.3 266.048 393.372C265.96 394.449 265.587 395.667 266.541 396.282C267.4 396.837 269.679 396.289 270.63 396.258C274.463 396.133 278.274 395.492 282.065 395.399Z" fill="black"/>
<path fill-rule="evenodd" clip-rule="evenodd" d="M102 154.005C100.332 155.616 101.133 157.279 101.679 159.292C102.008 160.501 103.812 164.468 103.314 165.598C102.739 166.905 100.036 167.226 98.8799 167.639C96.8667 168.358 94.8444 169.08 92.9393 170.093C92.0939 170.543 89.0446 171.577 88.473 172.417C88.1455 172.898 88.0263 173.275 88.2724 173.895C88.7048 174.984 89.3215 174.408 90.3751 174.174C95.1898 173.106 99.9637 171.74 104.429 169.487C105.674 172.59 106.728 175.759 107.781 178.943C108.09 179.876 108.385 181.996 109.557 182.147C110.987 182.33 111.006 180.274 110.911 179.165C110.773 177.545 109.991 175.818 109.519 174.284C109.13 173.018 107.764 170.382 107.932 169.078C108.047 168.18 108.557 168.243 109.465 167.89C110.323 167.557 111.182 167.226 112.04 166.889C113.415 166.349 114.784 165.807 116.122 165.166C116.857 164.815 118.393 164.404 118.925 163.674C119.233 163.251 119.577 161.726 119.188 161.304C118.278 160.315 112.223 162.976 110.978 163.339C110.152 163.58 109.322 163.764 108.521 164.08C108.217 164.201 107.858 164.689 107.53 164.707C106.137 164.783 106.027 163.633 105.595 162.399C104.591 159.532 103.502 156.608 102 154.005Z" fill="black"/>
<path fill-rule="evenodd" clip-rule="evenodd" d="M449.14 211.038C449.882 209.084 442.002 206.722 440.539 206.064C436.968 204.459 433.142 203.488 429.445 202.262C425.809 201.057 422.189 199.759 418.613 198.364C417.508 197.932 409.544 193.768 409.128 194.377C407.748 196.392 424.458 202.719 426.087 203.349C433.648 206.272 441.455 208.517 449.14 211.038Z" fill="black"/>
<path fill-rule="evenodd" clip-rule="evenodd" d="M110.179 58.1916C112.222 58.2136 115.168 58.8356 117.042 57.9454C114.755 58.0273 112.467 58.1097 110.179 58.1916Z" fill="black"/>
<path fill-rule="evenodd" clip-rule="evenodd" d="M396.801 118.941L401.344 118.923C399.828 118.546 398.313 118.318 396.801 118.941Z" fill="black"/>
<path fill-rule="evenodd" clip-rule="evenodd" d="M160.247 117.637C159.176 117.632 158.105 117.626 157.041 117.619C158.114 117.626 159.181 117.632 160.247 117.637Z" fill="black"/>
<path fill-rule="evenodd" clip-rule="evenodd" d="M66.5987 147.43C66.6067 148.661 66.6138 149.891 66.6233 151.116C66.6163 149.884 66.6077 148.657 66.5987 147.43Z" fill="black"/>
<path fill-rule="evenodd" clip-rule="evenodd" d="M277.529 374.206C278.667 374.295 279.805 374.383 280.941 374.471C279.803 374.383 278.666 374.294 277.529 374.206Z" fill="black"/>
<path fill-rule="evenodd" clip-rule="evenodd" d="M271.119 139.727C272.274 139.827 273.43 139.928 274.584 140.029C273.429 139.928 272.274 139.827 271.119 139.727Z" fill="black"/>
<path fill-rule="evenodd" clip-rule="evenodd" d="M151.568 117.233C150.75 117.231 149.933 117.23 149.122 117.228C149.942 117.23 150.755 117.232 151.568 117.233Z" fill="black"/>
<path fill-rule="evenodd" clip-rule="evenodd" d="M316.065 142.127C317.081 142.226 318.097 142.324 319.113 142.422C318.097 142.324 317.081 142.226 316.065 142.127Z" fill="black"/>
<path fill-rule="evenodd" clip-rule="evenodd" d="M271.189 64.2528C272.206 64.2594 273.222 64.266 274.238 64.2726C273.224 63.6956 272.208 63.8445 271.189 64.2528Z" fill="black"/>
<path fill-rule="evenodd" clip-rule="evenodd" d="M456.672 252.971C457.517 252.923 458.206 253.363 458.683 252.497C457.903 251.844 457.452 252.597 456.672 252.971Z" fill="black"/>
<path fill-rule="evenodd" clip-rule="evenodd" d="M299.889 180.102L302.527 179.784L299.889 180.102Z" fill="black"/>
<path fill-rule="evenodd" clip-rule="evenodd" d="M282.065 395.4C281.482 395.414 280.9 395.428 280.323 395.442C280.908 395.427 281.487 395.413 282.065 395.4Z" fill="black"/>
<path fill-rule="evenodd" clip-rule="evenodd" d="M146.675 59.9728C147.583 60.0602 148.492 60.1476 149.4 60.2349C148.491 60.147 147.583 60.0602 146.675 59.9728Z" fill="black"/>
<path fill-rule="evenodd" clip-rule="evenodd" d="M434.516 355.835C435.389 355.839 436.26 355.843 437.132 355.846C436.26 355.842 435.388 355.839 434.516 355.835Z" fill="black"/>
<path fill-rule="evenodd" clip-rule="evenodd" d="M504.642 339.229C505.523 339.231 506.403 339.232 507.283 339.234C506.402 339.232 505.523 339.231 504.642 339.229Z" fill="black"/>
<path fill-rule="evenodd" clip-rule="evenodd" d="M282.133 140.507C283.027 140.601 283.921 140.695 284.815 140.79C283.921 140.695 283.027 140.601 282.133 140.507Z" fill="black"/>
<path fill-rule="evenodd" clip-rule="evenodd" d="M307.077 142.064C307.956 141.956 308.835 141.847 309.714 141.738C308.843 141.921 307.875 141.198 307.077 142.064Z" fill="black"/>
<path fill-rule="evenodd" clip-rule="evenodd" d="M227.416 179.977C226.868 179.91 226.1 179.704 225.535 179.801C225.609 180.147 227.206 179.976 227.416 179.977Z" fill="black"/>
<path fill-rule="evenodd" clip-rule="evenodd" d="M283.211 254.067C282.621 254.079 282.03 254.091 281.446 254.102C282.038 254.09 282.624 254.079 283.211 254.067Z" fill="black"/>
<path fill-rule="evenodd" clip-rule="evenodd" d="M336.504 178.612C337.366 178.702 338.227 178.791 339.089 178.88C338.226 178.791 337.366 178.702 336.504 178.612Z" fill="black"/>
<path fill-rule="evenodd" clip-rule="evenodd" d="M432.981 175.459C432.511 175.472 432.041 175.486 431.578 175.5C432.05 175.486 432.515 175.472 432.981 175.459Z" fill="black"/>
<path fill-rule="evenodd" clip-rule="evenodd" d="M305.987 179.308C306.724 179.293 307.462 179.277 308.198 179.262C307.461 179.277 306.724 179.293 305.987 179.308Z" fill="black"/>
<path fill-rule="evenodd" clip-rule="evenodd" d="M442.757 173.319C443.502 173.418 444.247 173.516 444.991 173.615C444.245 173.516 443.501 173.417 442.757 173.319Z" fill="black"/>
<path fill-rule="evenodd" clip-rule="evenodd" d="M340.553 166.522C340.093 166.542 339.633 166.561 339.179 166.583C339.641 166.564 340.097 166.544 340.553 166.522Z" fill="black"/>
<path fill-rule="evenodd" clip-rule="evenodd" d="M305.451 249.62C304.983 249.587 304.517 249.555 304.056 249.521C304.524 249.554 304.987 249.587 305.451 249.62Z" fill="black"/>
<path fill-rule="evenodd" clip-rule="evenodd" d="M269.711 184.55C270.462 184.45 271.214 184.349 271.964 184.248C271.214 184.349 270.462 184.45 269.711 184.55Z" fill="black"/>
<path fill-rule="evenodd" clip-rule="evenodd" d="M451.024 309.126C450.536 309.119 450.048 309.112 449.566 309.104C450.055 309.111 450.54 309.118 451.024 309.126Z" fill="black"/>
<path fill-rule="evenodd" clip-rule="evenodd" d="M491.064 244.058C491.84 243.973 492.617 243.889 493.394 243.805C492.618 243.889 491.841 243.973 491.064 244.058Z" fill="black"/>
<path fill-rule="evenodd" clip-rule="evenodd" d="M507.638 339.343C508.402 339.438 509.165 339.533 509.929 339.627C509.165 339.532 508.402 339.438 507.638 339.343Z" fill="black"/>
<path fill-rule="evenodd" clip-rule="evenodd" d="M91.4357 117.505C91.4955 118.214 91.5554 118.922 91.6168 119.629C91.557 118.919 91.4966 118.212 91.4357 117.505Z" fill="black"/>
<path fill-rule="evenodd" clip-rule="evenodd" d="M429.953 355.127C430.721 355.221 431.489 355.316 432.257 355.411C431.489 355.316 430.721 355.221 429.953 355.127Z" fill="black"/>
<path fill-rule="evenodd" clip-rule="evenodd" d="M437.489 355.944C438.266 356.527 439.043 356.56 439.821 355.947C439.043 355.945 438.266 355.945 437.489 355.944Z" fill="black"/>
<path fill-rule="evenodd" clip-rule="evenodd" d="M452.226 356.642C452.98 356.642 453.733 356.643 454.487 356.643C453.733 356.643 452.98 356.642 452.226 356.642Z" fill="black"/>
<path fill-rule="evenodd" clip-rule="evenodd" d="M364.078 80.819C364.142 80.1008 364.207 79.3832 364.271 78.6678C364.207 79.3871 364.142 80.103 364.078 80.819Z" fill="black"/>
<path fill-rule="evenodd" clip-rule="evenodd" d="M281.764 64.7827C282.521 64.8832 283.279 64.9832 284.036 65.0832C283.278 64.9832 282.521 64.8832 281.764 64.7827Z" fill="black"/>
<path fill-rule="evenodd" clip-rule="evenodd" d="M279.08 64.4023C279.85 64.4946 280.62 64.5874 281.389 64.6803C280.619 64.5874 279.85 64.4946 279.08 64.4023Z" fill="black"/>
<path fill-rule="evenodd" clip-rule="evenodd" d="M398.617 160.096C398.143 160.088 397.67 160.081 397.202 160.074C397.678 160.081 398.148 160.088 398.617 160.096Z" fill="black"/>
<path fill-rule="evenodd" clip-rule="evenodd" d="M330.048 152.143C327.535 151.698 325.022 151.55 322.509 152.142L330.048 152.143Z" fill="black"/>
<path fill-rule="evenodd" clip-rule="evenodd" d="M263.02 121.786C262.497 120.319 262.367 119.769 261.09 119.009C261.621 120.435 261.705 121.198 263.02 121.786Z" fill="black"/>
<path fill-rule="evenodd" clip-rule="evenodd" d="M201.733 266.98C201.682 268.506 201.632 270.031 201.582 271.555C201.633 270.029 201.683 268.505 201.733 266.98Z" fill="black"/>
<path fill-rule="evenodd" clip-rule="evenodd" d="M110.59 61.7146C111.727 61.7421 112.864 61.7701 113.996 61.7976C112.857 61.7701 111.724 61.7421 110.59 61.7146Z" fill="black"/>
<path fill-rule="evenodd" clip-rule="evenodd" d="M262.047 294.091C262.007 295.362 261.968 296.635 261.928 297.905C261.968 296.632 262.007 295.362 262.047 294.091Z" fill="black"/>
<path fill-rule="evenodd" clip-rule="evenodd" d="M401.368 253.351C400.22 253.359 399.071 253.368 397.922 253.376C399.071 253.368 400.22 253.359 401.368 253.351Z" fill="black"/>
<path fill-rule="evenodd" clip-rule="evenodd" d="M303.748 188.032C304.44 188.039 305.132 188.046 305.817 188.055C305.123 188.048 304.436 188.04 303.748 188.032Z" fill="black"/>
<path fill-rule="evenodd" clip-rule="evenodd" d="M306.002 147.611C306.571 147.59 307.141 147.569 307.704 147.551C307.132 147.572 306.567 147.591 306.002 147.611Z" fill="black"/>
<path fill-rule="evenodd" clip-rule="evenodd" d="M387.383 252.966C386.485 252.872 385.587 252.777 384.689 252.683C385.587 252.777 386.485 252.872 387.383 252.966Z" fill="black"/>
<path fill-rule="evenodd" clip-rule="evenodd" d="M406.948 253.399C406.069 253.385 405.189 253.37 404.31 253.355C405.189 253.37 406.069 253.385 406.948 253.399Z" fill="black"/>
<path fill-rule="evenodd" clip-rule="evenodd" d="M397.557 253.375C396.647 253.29 395.736 253.204 394.824 253.119C395.735 253.204 396.647 253.29 397.557 253.375Z" fill="black"/>
<path fill-rule="evenodd" clip-rule="evenodd" d="M394.236 254.925C394.689 254.922 395.142 254.919 395.588 254.917C395.133 254.92 394.685 254.922 394.236 254.925Z" fill="black"/>
<path fill-rule="evenodd" clip-rule="evenodd" d="M202.13 233.071C202.063 232.354 201.995 231.638 201.928 230.924C201.995 231.641 202.063 232.356 202.13 233.071Z" fill="black"/>
<path fill-rule="evenodd" clip-rule="evenodd" d="M338.131 160.612C337.559 160.664 336.988 160.716 336.416 160.769C337.054 160.804 337.692 160.838 338.33 160.874C338.326 160.733 338.26 160.646 338.131 160.612Z" fill="black"/>
<path fill-rule="evenodd" clip-rule="evenodd" d="M191.357 281.177C191.394 280.524 191.43 279.871 191.466 279.222C191.429 279.876 191.393 280.527 191.357 281.177Z" fill="black"/>
<path fill-rule="evenodd" clip-rule="evenodd" d="M327.876 158.121C328.335 158.13 328.794 158.14 329.247 158.149C328.786 158.139 328.331 158.13 327.876 158.121Z" fill="black"/>
<path fill-rule="evenodd" clip-rule="evenodd" d="M159.987 240.525C159.222 240.621 158.458 240.717 157.694 240.812C158.458 240.717 159.222 240.621 159.987 240.525Z" fill="black"/>
<path fill-rule="evenodd" clip-rule="evenodd" d="M318.768 186.436C319.239 186.443 319.709 186.45 320.174 186.459C319.702 186.452 319.235 186.444 318.768 186.436Z" fill="black"/>
<path fill-rule="evenodd" clip-rule="evenodd" d="M345.977 87.6271C345.483 87.9101 345.739 89.1541 346.221 89.0354C346.139 88.5656 346.058 88.0963 345.977 87.6271Z" fill="black"/>
<path fill-rule="evenodd" clip-rule="evenodd" d="M91.3967 235.481C91.8506 235.468 92.304 235.456 92.7512 235.443C92.2963 235.456 91.8465 235.469 91.3967 235.481Z" fill="black"/>
<path fill-rule="evenodd" clip-rule="evenodd" d="M367.532 81.1761C367.58 80.0799 367.628 78.9842 367.676 77.8913C367.628 78.9886 367.58 80.0821 367.532 81.1761Z" fill="black"/>
<path fill-rule="evenodd" clip-rule="evenodd" d="M281.627 391.153C280.928 391.263 280.229 391.373 279.531 391.483C280.23 391.373 280.928 391.263 281.627 391.153Z" fill="black"/>
<path fill-rule="evenodd" clip-rule="evenodd" d="M286.246 108.949C288.709 109.494 291.24 109.779 293.646 110.58C294.246 110.78 296.216 112.009 296.935 111.685C298.028 111.192 297.475 109.928 297.015 109.253C295.784 107.449 293.582 106.438 291.562 106.46C289.546 106.483 286.779 106.404 286.246 108.949Z" fill="black"/>
<path fill-rule="evenodd" clip-rule="evenodd" d="M293.091 113.79C290.378 115.83 288.306 116.834 288.076 112.251C285.136 112.681 286.453 117.766 288.678 118.149C291.1 118.566 292.715 115.969 293.091 113.79Z" fill="black"/>
</g>
<defs>
<clipPath id="clip0_207_496">
<rect width="524" height="422" fill="white" transform="matrix(-1 0 0 1 524 0)"/>
</clipPath>
</defs>
</svg>
